<svg width="34" height="48" viewBox="0 0 34 48" fill="none" xmlns="http://www.w3.org/2000/svg">
<path d="M7.86209 47.5862C12.2019 47.5862 15.7241 44.064 15.7241 39.7241V31.8621H7.86209C3.52222 31.8621 0 35.3843 0 39.7241C0 44.064 3.52222 47.5862 7.86209 47.5862Z" fill="#0ACF83"/>
<path d="M0 24.0001C0 19.6602 3.52222 16.1379 7.86209 16.1379H15.7241V31.8622H7.86209C3.52222 31.8622 0 28.34 0 24.0001Z" fill="#A259FF"/>
<path d="M0 8.27589C0 3.93603 3.52222 0.413818 7.86209 0.413818H15.7241V16.138H7.86209C3.52222 16.138 0 12.6157 0 8.27589Z" fill="#F24E1E"/>
<path d="M15.7227 0.413818H23.5847C27.9246 0.413818 31.4468 3.93603 31.4468 8.27589C31.4468 12.6157 27.9246 16.138 23.5847 16.138H15.7227V0.413818Z" fill="#FF7262"/>
<path d="M31.4468 24.0001C31.4468 28.34 27.9246 31.8622 23.5847 31.8622C19.2449 31.8622 15.7227 28.34 15.7227 24.0001C15.7227 19.6602 19.2449 16.1379 23.5847 16.1379C27.9246 16.1379 31.4468 19.6602 31.4468 24.0001Z" fill="#1ABCFE"/>
</svg>
