<svg width="190" height="50" viewBox="0 0 190 50" fill="none" xmlns="http://www.w3.org/2000/svg">
<path d="M9.53002 50V33.2898L38.9034 11.8799L46.9974 17.7546L55.0914 11.8799L38.9034 0L0 28.4595V50H9.53002Z" fill="#559449"/>
<path d="M41.2527 50V33.2898L70.4955 11.8799H86.6835L70.4955 0L31.7227 28.4595V50H41.2527Z" fill="#559449"/>
<path d="M62.952 44V40.022L78.524 23.226H63.564V19.214H84.78V23.192L69.174 39.988H85.154V44H62.952ZM94.9558 44.34C89.6178 44.34 86.0138 40.668 86.0138 34.956C86.0138 29.21 89.6178 25.606 94.9558 25.606C98.5598 25.606 100.974 27 102.028 29.006H102.266L102.402 25.912H106.992V44H102.164V40.77H101.926C100.804 42.946 98.1178 44.34 94.9558 44.34ZM96.4178 40.634C100.022 40.634 102.13 38.288 102.13 35.432V34.344C102.13 31.59 100.022 29.312 96.4178 29.312C93.1198 29.312 90.8758 31.318 90.8758 34.956C90.8758 38.492 93.0858 40.634 96.4178 40.634ZM109.922 23.362V19.214H114.75V23.362H109.922ZM109.922 44V25.912H114.75V44H109.922ZM117.676 49.678V25.912H122.232L122.402 29.006H122.606C123.694 27 126.108 25.606 129.678 25.606C135.016 25.606 138.62 29.21 138.62 34.956C138.62 40.668 135.016 44.34 129.644 44.34C126.516 44.34 123.83 42.946 122.708 40.77H122.504V49.678H117.676ZM128.25 40.634C131.548 40.634 133.758 38.492 133.758 34.956C133.758 31.352 131.548 29.312 128.25 29.312C124.612 29.312 122.504 31.59 122.504 34.344V35.432C122.504 38.288 124.612 40.634 128.25 40.634ZM148.929 44.34C143.591 44.34 139.987 40.668 139.987 34.956C139.987 29.21 143.591 25.606 148.929 25.606C152.533 25.606 154.947 27 156.002 29.006H156.239L156.375 25.912H160.965V44H156.137V40.77H155.899C154.777 42.946 152.091 44.34 148.929 44.34ZM150.391 40.634C153.995 40.634 156.103 38.288 156.103 35.432V34.344C156.103 31.59 153.995 29.312 150.391 29.312C147.093 29.312 144.849 31.318 144.849 34.956C144.849 38.492 147.059 40.634 150.391 40.634ZM163.896 44V25.912H168.248L168.452 28.938H168.656C169.404 26.898 171.274 25.64 173.722 25.64C174.368 25.64 174.878 25.674 175.286 25.776V30.128C174.776 30.026 174.164 29.958 173.62 29.958C170.696 29.958 168.826 31.454 168.724 34.786V44H163.896ZM184.43 44C181.54 44 179.772 42.674 179.772 39.784V29.584H176.236V25.912H179.772V21.084L184.532 20.166V25.912H189.122V29.584H184.532V38.288C184.532 39.512 185.144 39.852 186.334 39.852H189.122V44H184.43Z" fill="white"/>
</svg>
