<svg width="70" height="70" viewBox="0 0 70 70" fill="none" xmlns="http://www.w3.org/2000/svg">
<path d="M62.5 0H7.5C5.51088 0 3.60322 0.790177 2.1967 2.1967C0.790177 3.60322 0 5.51088 0 7.5V20H70V7.5C70 5.51088 69.2098 3.60322 67.8033 2.1967C66.3968 0.790177 64.4891 0 62.5 0ZM12.5 12.5H10C9.33696 12.5 8.70107 12.2366 8.23223 11.7678C7.76339 11.2989 7.5 10.663 7.5 10C7.5 9.33696 7.76339 8.70107 8.23223 8.23223C8.70107 7.76339 9.33696 7.5 10 7.5H12.5C13.163 7.5 13.7989 7.76339 14.2678 8.23223C14.7366 8.70107 15 9.33696 15 10C15 10.663 14.7366 11.2989 14.2678 11.7678C13.7989 12.2366 13.163 12.5 12.5 12.5ZM25 12.5H22.5C21.837 12.5 21.2011 12.2366 20.7322 11.7678C20.2634 11.2989 20 10.663 20 10C20 9.33696 20.2634 8.70107 20.7322 8.23223C21.2011 7.76339 21.837 7.5 22.5 7.5H25C25.663 7.5 26.2989 7.76339 26.7678 8.23223C27.2366 8.70107 27.5 9.33696 27.5 10C27.5 10.663 27.2366 11.2989 26.7678 11.7678C26.2989 12.2366 25.663 12.5 25 12.5Z" fill="white"/>
<path d="M15 37.5H27.5V57.5H15V37.5Z" fill="white"/>
<path d="M0 62.5C0 64.4891 0.790177 66.3968 2.1967 67.8033C3.60322 69.2098 5.51088 70 7.5 70H62.5C64.4891 70 66.3968 69.2098 67.8033 67.8033C69.2098 66.3968 70 64.4891 70 62.5V25H0V62.5ZM40 35H57.5C58.163 35 58.7989 35.2634 59.2678 35.7322C59.7366 36.2011 60 36.837 60 37.5C60 38.163 59.7366 38.7989 59.2678 39.2678C58.7989 39.7366 58.163 40 57.5 40H40C39.337 40 38.7011 39.7366 38.2322 39.2678C37.7634 38.7989 37.5 38.163 37.5 37.5C37.5 36.837 37.7634 36.2011 38.2322 35.7322C38.7011 35.2634 39.337 35 40 35ZM40 45H57.5C58.163 45 58.7989 45.2634 59.2678 45.7322C59.7366 46.2011 60 46.837 60 47.5C60 48.163 59.7366 48.7989 59.2678 49.2678C58.7989 49.7366 58.163 50 57.5 50H40C39.337 50 38.7011 49.7366 38.2322 49.2678C37.7634 48.7989 37.5 48.163 37.5 47.5C37.5 46.837 37.7634 46.2011 38.2322 45.7322C38.7011 45.2634 39.337 45 40 45ZM40 55H57.5C58.163 55 58.7989 55.2634 59.2678 55.7322C59.7366 56.2011 60 56.837 60 57.5C60 58.163 59.7366 58.7989 59.2678 59.2678C58.7989 59.7366 58.163 60 57.5 60H40C39.337 60 38.7011 59.7366 38.2322 59.2678C37.7634 58.7989 37.5 58.163 37.5 57.5C37.5 56.837 37.7634 56.2011 38.2322 55.7322C38.7011 55.2634 39.337 55 40 55ZM10 37.5C10 36.1739 10.5268 34.9021 11.4645 33.9645C12.4021 33.0268 13.6739 32.5 15 32.5H27.5C28.8261 32.5 30.0979 33.0268 31.0355 33.9645C31.9732 34.9021 32.5 36.1739 32.5 37.5V57.5C32.5 58.8261 31.9732 60.0979 31.0355 61.0355C30.0979 61.9732 28.8261 62.5 27.5 62.5H15C13.6739 62.5 12.4021 61.9732 11.4645 61.0355C10.5268 60.0979 10 58.8261 10 57.5V37.5Z" fill="white"/>
</svg>
