<svg width="70" height="70" viewBox="0 0 70 70" fill="none" xmlns="http://www.w3.org/2000/svg">
<g clip-path="url(#clip0_2004_417)">
<path d="M17.5 0H2.91667C1.30667 0 0 1.30667 0 2.91667V17.5C0 19.11 1.30667 20.4167 2.91667 20.4167H17.5C19.11 20.4167 20.4167 19.11 20.4167 17.5V2.91667C20.4167 1.30667 19.11 0 17.5 0Z" fill="white"/>
<path d="M45.2088 17.5V2.91667C45.2088 1.30667 43.9021 0 42.2921 0H27.7088C26.0988 0 24.7921 1.30667 24.7921 2.91667V17.5C24.7921 19.11 26.0988 20.4167 27.7088 20.4167H42.2921C43.9021 20.4167 45.2088 19.11 45.2088 17.5Z" fill="white"/>
<path d="M45.2084 27.7083C45.2084 26.0983 43.9017 24.7916 42.2917 24.7916H24.7917H20.4167H2.91667C1.30667 24.7916 0 26.0983 0 27.7083V42.2916C0 43.9016 1.30667 45.2083 2.91667 45.2083H42.2917C43.9017 45.2083 45.2084 43.9016 45.2084 42.2916V27.7083Z" fill="white"/>
<path d="M67.0829 0H52.4996C50.8896 0 49.5829 1.30667 49.5829 2.91667V17.5C49.5829 19.11 50.8896 20.4167 52.4996 20.4167H67.0829C68.6929 20.4167 69.9995 19.11 69.9995 17.5V2.91667C69.9995 1.30667 68.6929 0 67.0829 0Z" fill="white"/>
<path d="M0 52.5V67.0834C0 68.6934 1.30667 70 2.91667 70H42.2917C43.9017 70 45.2084 68.6934 45.2084 67.0834V52.5C45.2084 50.89 43.9017 49.5834 42.2917 49.5834H2.91667C1.30667 49.5834 0 50.89 0 52.5Z" fill="white"/>
<path d="M52.4996 45.2083H67.0829C68.6929 45.2083 69.9995 43.9016 69.9995 42.2916V27.7083C69.9995 26.0983 68.6929 24.7916 67.0829 24.7916H52.4996C50.8896 24.7916 49.5829 26.0983 49.5829 27.7083V42.2916C49.5829 43.9016 50.8896 45.2083 52.4996 45.2083Z" fill="white"/>
<path d="M52.4996 70H67.0829C68.6929 70 69.9995 68.6934 69.9995 67.0834V52.5C69.9995 50.89 68.6929 49.5834 67.0829 49.5834H52.4996C50.8896 49.5834 49.5829 50.89 49.5829 52.5V67.0834C49.5829 68.6934 50.8896 70 52.4996 70Z" fill="white"/>
</g>
<defs>
<clipPath id="clip0_2004_417">
<rect width="70" height="70" fill="white"/>
</clipPath>
</defs>
</svg>
