<svg width="64" height="82" viewBox="0 0 64 82" fill="none" xmlns="http://www.w3.org/2000/svg">
<path d="M53.906 1.71289V8.77086H62.006L53.906 1.71289Z" fill="white"/>
<path d="M41.5999 18.4389V9.44421H0.571533V81.3437H52.8798V19.3178H42.4788C42.2457 19.3178 42.0222 19.2252 41.8574 19.0604C41.6925 18.8956 41.5999 18.672 41.5999 18.4389ZM8.26864 30.6283H22.1554V32.3861H8.26864V30.6283ZM5.31552 35.1986H3.5577V18.4683H5.31552V35.1986ZM5.31552 16.39H3.5577V13.7923H5.31552V16.39ZM45.0069 74.5736H8.26864V72.8158H45.0069V74.5736ZM45.0069 67.5424H8.26864V65.7846H45.0069V67.5424ZM45.0069 60.5111H8.26864V58.7533H45.0069V60.5111ZM45.0069 53.4799H8.26864V51.7221H45.0069V53.4799ZM45.0069 46.4486H8.26864V44.6908H45.0069V46.4486ZM45.0069 39.4174H8.26864V37.6596H45.0069V39.4174Z" fill="white"/>
<path d="M53.0257 10.5288C52.7926 10.5288 52.569 10.4362 52.4042 10.2714C52.2394 10.1065 52.1468 9.88298 52.1468 9.64988V0.655151H11.1184V7.6864H42.1222C42.1514 7.6864 42.1805 7.68798 42.2101 7.6908L43.0964 7.94234L54.3367 17.7367C54.4314 17.8192 54.5073 17.921 54.5593 18.0354C54.6113 18.1497 54.6382 18.2738 54.6381 18.3994V72.5546H63.4272V10.5288H53.0257Z" fill="white"/>
<path d="M43.3591 17.5599H51.4591L43.3591 10.502V17.5599Z" fill="white"/>
</svg>
